<?xml version="1.0" encoding="UTF-8" standalone="no"?>
<!-- Created with Inkscape (http://www.inkscape.org/) -->

<svg
   xmlns:dc="http://purl.org/dc/elements/1.1/"
   xmlns:cc="http://creativecommons.org/ns#"
   xmlns:rdf="http://www.w3.org/1999/02/22-rdf-syntax-ns#"
   xmlns:svg="http://www.w3.org/2000/svg"
   xmlns="http://www.w3.org/2000/svg"
   xmlns:sodipodi="http://sodipodi.sourceforge.net/DTD/sodipodi-0.dtd"
   xmlns:inkscape="http://www.inkscape.org/namespaces/inkscape"
   width="210mm"
   height="297mm"
   viewBox="0 0 210 297"
   version="1.1"
   id="svg8"
   inkscape:version="0.92.5 (2060ec1f9f, 2020-04-08)"
   sodipodi:docname="drawing-1.svg">
  <defs
     id="defs2" />
  <sodipodi:namedview
     id="base"
     pagecolor="#ffffff"
     bordercolor="#666666"
     borderopacity="1.0"
     inkscape:pageopacity="0.0"
     inkscape:pageshadow="2"
     inkscape:zoom="0.35"
     inkscape:cx="770.87424"
     inkscape:cy="390.06911"
     inkscape:document-units="mm"
     inkscape:current-layer="layer1"
     showgrid="false"
     inkscape:window-width="1366"
     inkscape:window-height="708"
     inkscape:window-x="0"
     inkscape:window-y="0"
     inkscape:window-maximized="1" />
  <metadata
     id="metadata5">
    <rdf:RDF>
      <cc:Work
         rdf:about="">
        <dc:format>image/svg+xml</dc:format>
        <dc:type
           rdf:resource="http://purl.org/dc/dcmitype/StillImage" />
        <dc:title></dc:title>
      </cc:Work>
    </rdf:RDF>
  </metadata>
  <g
     inkscape:label="Layer 1"
     inkscape:groupmode="layer"
     id="layer1">
    <path
       style="fill:#002255;stroke-width:0.14171806"
       d="m 103.46776,160.12171 c -0.1309,-0.26068 -0.59558,-1.33491 -1.03263,-2.38716 -1.03665,-2.49587 -4.264361,-8.79274 -6.087561,-11.87612 -1.37121,-2.31897 -1.91699,-3.18119 -2.84362,-4.49232 -0.60596,-0.8574 -1.1386,-1.59079 -1.18365,-1.62976 -0.0451,-0.039 -0.40014,-0.48538 -0.7891,-0.99203 -0.76691,-0.99895 -0.81037,-1.05142 -2.34771,-2.83436 -1.38707,-1.60865 -4.48957,-4.67127 -6.11658,-6.03796 -2.30757,-1.93835 -3.51228,-3.05639 -3.51228,-3.25958 0,-0.24897 0.0629,-0.24719 1.00173,0.0284 3.64037,1.06847 9.60003,5.13899 14.08975,9.62348 1.45259,1.45089 3.45098,3.71139 4.32389,4.89101 0.19486,0.26332 0.51911,0.67358 0.72055,0.91168 0.691731,0.81762 2.563461,3.41077 3.739231,5.18046 1.33748,2.0131 1.6909,2.60191 2.48469,4.13959 0.69166,1.33986 0.91259,1.48194 1.9451,1.25088 2.18996,-0.4901 12.01649,-5.64674 16.47795,-8.6471 2.13381,-1.435 4.11096,-2.79307 4.4183,-3.03485 0.20863,-0.16412 0.81448,-0.61728 1.34632,-1.007 1.34832,-0.98803 3.42668,-2.62409 4.93509,-3.88486 1.2498,-1.04461 1.54301,-1.30231 3.25243,-2.85854 1.50108,-1.36656 4.39116,-4.27606 5.61571,-5.65346 0.65662,-0.73857 1.28537,-1.44008 1.39722,-1.5589 0.39331,-0.41781 2.79266,-3.48673 3.49287,-4.46759 1.51717,-2.12527 3.69613,-5.95557 4.2772,-7.51867 0.0854,-0.22965 0.40685,-1.02339 0.71438,-1.76386 2.83848,-6.83433 4.00141,-13.585426 3.41774,-19.840526 -0.76386,-8.18621 -4.06215,-14.74752 -9.52742,-18.95294 -0.87934,-0.67664 -3.59786,-2.3041 -3.85134,-2.30564 -0.0792,-4.2e-4 -0.3353,-0.10203 -0.56914,-0.22566 -0.64635,-0.34173 -3.37726,-1.13597 -4.88927,-1.42197 -2.07371,-0.39224 -6.23934,-0.3568 -8.21965,0.0699 -2.52905,0.54499 -5.32859,1.68158 -6.91109,2.80586 -0.31157,0.22135 -0.71209,0.49812 -0.89004,0.61504 -0.61832,0.40626 -2.19593,1.81019 -3.2033,2.85065 -2.65444,2.74165 -4.52876,5.55249 -7.17116,10.75428 -0.61371,1.20815 -1.17922,2.26041 -1.25668,2.33835 -0.14633,0.14724 -0.5305,-0.2283 -2.46317,-2.40772 -7.32631,-8.26176 -13.099771,-11.06021 -21.539191,-10.44028 -4.83429,0.35511 -8.20818,1.73261 -11.85548,4.84037 -2.13576,1.81983 -4.18889,4.78671 -5.5414,8.00763 -0.45691,1.08811 -1.06269,3.26868 -1.24018,4.46412 -0.41048,2.76472 -0.1036,8.159506 0.62267,10.946246 0.73026,2.80203 4.08501,8.51623 5.92387,10.09023 l 0.57749,0.49431 0.63898,-0.45541 c 0.83572,-0.59562 4.94067,-4.02014 6.83315,-5.70047 0.81842,-0.72669 1.63235,-1.44634 1.80872,-1.59924 0.17638,-0.15291 0.846,-0.75325 1.48804,-1.33411 1.25537,-1.13573 3.27475,-2.90794 4.48779,-3.93848 0.41287,-0.35075 0.82315,-0.70242 0.91175,-0.78148 1.06047,-0.94644 2.34648,-1.786606 2.84382,-1.857926 0.37424,-0.0537 0.60342,0.08 1.63966,0.956636 0.66253,0.56047 2.19308,1.85175 3.40123,2.86953 1.208141,1.01778 2.265291,1.91645 2.349211,1.99706 0.0839,0.0806 0.90794,0.78428 1.83114,1.56373 2.34452,1.97946 4.678,3.95779 5.59818,4.74617 1.2341,1.05733 3.7069,3.15468 4.26529,3.61768 0.28037,0.23247 1.1413,0.96751 1.91319,1.63343 0.77189,0.66591 2.04117,1.74802 2.82062,2.40469 0.77945,0.65667 1.49281,1.26706 1.58525,1.35641 0.0924,0.0893 0.87413,0.75638 1.7371,1.4823 l 1.56903,1.31984 -0.0365,8.86763 -0.0365,8.86762 h -8.21965 -8.21964 l -0.0111,-7.15676 c -0.0116,-7.51049 0.10572,-13.25081 0.27431,-13.4194 0.0549,-0.0549 0.30508,0.0194 0.556,0.16506 0.51889,0.3012 3.41057,2.66387 4.31804,3.52809 l 0.6023,0.57359 v 5.28492 5.28492 h 2.40084 c 1.32047,0 2.43524,-0.0556 2.47729,-0.12368 0.042,-0.068 0.0936,-2.0651 0.11465,-4.43794 l 0.0382,-4.31426 -0.42515,-0.48935 c -0.35886,-0.41303 -1.14597,-1.13933 -4.33996,-4.00466 -0.18754,-0.16824 -0.91399,-0.80846 -1.61432,-1.42269 -0.70034,-0.61424 -1.47782,-1.29881 -1.72774,-1.52128 -0.24992,-0.22247 -0.91954,-0.80137 -1.48804,-1.28645 -0.5685,-0.48508 -1.06553,-0.91911 -1.1045,-0.96452 -0.039,-0.0454 -0.96368,-0.84189 -2.05491,-1.76996 -1.09122,-0.92808 -2.01593,-1.73092 -2.0549,-1.7841 -0.11064,-0.15096 -7.258641,-6.08747 -7.623771,-6.33164 -0.26652,-0.17823 -0.38417,-0.18602 -0.65116,-0.0431 -0.37348,0.19988 -2.61657,1.97108 -3.77111,2.97776 -0.42869,0.37379 -1.28963,1.11647 -1.91319,1.65039 -0.62356,0.53393 -1.16563,1.00498 -1.2046,1.04678 -0.039,0.0418 -1.34633,1.22136 -2.90522,2.62124 -1.5589,1.39988 -3.53697,3.18485 -4.39572,3.9666 -3.05964,2.78533 -3.91924,3.54871 -4.12796,3.66593 -0.26873,0.15093 -0.89485,-0.27865 -2.86703,-1.96707 -3.2513,-2.78349 -5.80153,-6.00304 -7.63891,-9.64377 -1.34607,-2.6672 -2.3147,-5.71584 -2.90018,-9.12793 -0.20544,-1.19722 -0.20459,-7.312816 0.001,-8.503076 0.60368,-3.49203 1.43275,-6.08545 2.87685,-8.9991 0.87373,-1.76285 1.0936,-2.11548 2.24938,-3.6076 1.76334,-2.27647 4.93094,-5.20816 7.23643,-6.69748 3.17717,-2.05242 6.67098,-3.19986 10.48713,-3.44417 0.81842,-0.0524 1.74313,-0.11909 2.05491,-0.14822 0.69986,-0.0654 4.62983,0.18525 5.8813,0.37508 2.20937,0.33512 5.24824,1.2441 7.394051,2.21168 2.79829,1.26179 4.78713,2.50769 7.37193,4.61809 0.75549,0.61684 1.43818,1.08163 1.51707,1.03287 0.0789,-0.0488 0.66516,-0.86789 1.30281,-1.82028 1.54033,-2.30058 1.99983,-2.85683 3.94748,-4.77858 4.17294,-4.11744 10.35991,-7.40532 15.45511,-8.21317 1.20633,-0.19127 5.91035,-0.18914 7.87617,0.004 3.30929,0.32439 7.25812,1.50641 9.95939,2.9812 4.98195,2.71995 8.59714,6.55578 11.29117,11.98026 1.76601,3.55592 2.92868,7.54979 3.47824,11.94819 0.54061,4.32662 0.24048,9.825666 -0.79454,14.558406 -0.20148,0.92128 -0.4523,1.96203 -0.55738,2.31278 -0.42783,1.42804 -1.91785,5.80035 -2.26989,6.66075 -0.5536,1.35301 -2.67322,5.62269 -3.21691,6.48004 -0.25827,0.40725 -0.78844,1.25762 -1.17816,1.88969 -3.09845,5.02525 -9.16163,11.96387 -14.29592,16.36007 -0.45516,0.38973 -0.98268,0.8514 -1.17227,1.02595 -0.1896,0.17454 -0.80452,0.68365 -1.3665,1.13136 -0.56199,0.44771 -1.11745,0.89279 -1.23437,0.98908 -3.09306,2.54724 -9.29459,6.83313 -12.47119,8.61885 -0.35075,0.19718 -0.83943,0.4801 -1.08595,0.62873 -2.01185,1.21292 -9.35463,4.85405 -14.78647,7.33232 -0.4287,0.19559 -1.03454,0.47224 -1.34632,0.61479 -1.59763,0.73042 -2.28507,0.99828 -2.75467,1.07338 -0.47741,0.0763 -0.53472,0.0466 -0.75464,-0.39136 z m -14.811441,-36.29321 0.0391,-2.1612 h 2.12577 2.12577 l 0.0391,2.1612 0.0391,2.1612 h -2.20401 -2.20401 z m 6.09386,0.004 0.0391,-2.16491 h 2.12577 2.12577 v 2.12577 2.12577 l -2.16491,0.0391 -2.16491,0.0391 0.0391,-2.16491 z m 47.204171,1.98034 c -0.0631,-0.0974 -0.0968,-9.47458 -0.0751,-20.8381 l 0.0396,-20.660946 -4.07852,0.041 -4.07852,0.041 -0.0361,14.84497 -0.0361,14.844956 h -6.7197 -6.71969 l -0.0755,-0.38972 c -0.0415,-0.21435 -0.14379,-3.57838 -0.22721,-7.47563 -0.0834,-3.89725 -0.18804,-7.615156 -0.23247,-8.262026 l -0.0808,-1.17613 -3.44724,0.0424 c -1.89598,0.0233 -3.49242,0.0877 -3.54765,0.14306 -0.26309,0.26377 -0.36125,1.77152 -0.47639,7.317276 -0.0806,3.88107 -0.17775,6.05394 -0.27508,6.15128 -0.17384,0.17383 -1.57658,-0.84207 -3.28104,-2.37621 -0.58459,-0.52618 -1.3345,-1.19998 -1.66647,-1.49733 l -0.60358,-0.54065 0.0367,-7.341016 0.0367,-7.34103 h 9.63683 9.63682 l 0.0365,8.61943 0.0365,8.619426 0.81377,-0.0897 c 0.44758,-0.0494 0.9791,-0.12052 1.18115,-0.15813 l 0.36738,-0.0684 0.10182,-14.692746 c 0.0673,-9.7124 0.15125,-14.75231 0.24762,-14.86844 0.21299,-0.25663 18.24073,-0.26553 18.59004,-0.009 0.2247,0.16491 0.23814,1.53916 0.20345,20.8023 l -0.0371,20.625736 -0.49602,0.63151 c -0.2728,0.34734 -0.57074,0.72739 -0.66208,0.84456 -1.19969,1.53902 -3.72369,4.39373 -3.88472,4.39373 -0.0622,0 -0.16476,-0.0797 -0.22782,-0.17715 z m -53.329771,-8.32963 v -2.41289 l 2.1612,0.0391 2.16121,0.0391 0.0389,2.37377 0.0389,2.37378 h -2.20007 -2.20006 z m 6.09388,0 v -2.41289 l 2.1612,0.0391 2.1612,0.0391 0.0389,2.37377 0.0388,2.37378 h -2.20005 -2.20006 z m 20.599381,-9.72584 c -0.69874,-0.10151 -0.91782,-0.46633 -1.07919,-1.7971 -0.0795,-0.65567 -0.10456,-1.35149 -0.0557,-1.54627 0.10932,-0.43556 0.50984,-0.53203 2.20896,-0.53203 1.74996,0 1.78085,0.0329 1.78085,1.89671 0,1.84188 -0.0574,1.92196 -1.42847,1.99278 -0.53941,0.0279 -1.18133,0.0215 -1.42648,-0.0141 z m -0.97889,-5.75689 c -0.0399,-0.10403 -0.0546,-0.98276 -0.0326,-1.95275 l 0.04,-1.763616 h 1.91319 1.9132 v 1.913196 1.91319 l -1.88063,0.0396 c -1.46555,0.0308 -1.89663,-0.002 -1.95321,-0.14958 z m 21.65488,-6.855476 c -0.12931,-0.0534 -0.17715,-0.58775 -0.17715,-1.97855 v -1.90538 l 1.91994,0.0394 1.91994,0.0394 0.0451,1.70061 c 0.0248,0.93534 -0.009,1.80624 -0.0755,1.93533 -0.10169,0.19798 -0.38143,0.2353 -1.78787,0.2385 -0.91703,0.002 -1.74704,-0.0291 -1.84447,-0.0694 z m -0.11532,-5.76156 c -0.0391,-0.10176 -0.053,-0.97864 -0.031,-1.94862 l 0.04,-1.76362 1.83084,-0.0398 c 1.00696,-0.0219 1.88243,0.0118 1.9455,0.0748 0.0631,0.0631 0.0743,0.95788 0.025,1.98847 l -0.0896,1.8738 h -1.82489 c -1.37054,0 -1.84257,-0.0461 -1.89589,-0.18501 z"
       id="path59"
       inkscape:connector-curvature="0" />
    <path
       style="fill:#002255;stroke-width:0.15511358"
       d="m 77.723359,194.4949 0.0442,-1.58478 0.59368,-0.0962 c 0.79253,-0.12842 1.13733,-0.51006 1.59167,-1.76176 0.66481,-1.83154 0.92802,-7.18398 0.37061,-7.53647 -0.12609,-0.0797 -0.42121,-0.14603 -0.65582,-0.14735 -0.2747,-0.002 -0.42656,-0.0852 -0.42656,-0.23504 0,-0.20118 0.57736,-0.23267 4.26562,-0.23267 3.68826,0 4.26562,0.0315 4.26562,0.23267 0,0.15229 -0.15244,0.23268 -0.4413,0.23268 -0.92421,0 -0.95472,0.14923 -0.95472,4.66987 0,4.44552 0.061,4.79205 0.84293,4.79205 0.198,0 0.42831,0.0872 0.51181,0.19389 0.19966,0.255 0.16682,2.90029 -0.0363,2.92223 -0.0853,0.009 -0.29794,-0.35599 -0.47249,-0.81155 -0.46662,-1.21776 -0.91888,-1.4652 -2.92833,-1.60216 -1.75094,-0.11935 -4.0417,-1.1e-4 -4.86231,0.25308 -0.59443,0.18339 -1.27636,1.09213 -1.27636,1.70085 0,0.22794 -0.10659,0.45364 -0.23806,0.50409 -0.20613,0.0791 -0.23214,-0.12123 -0.19389,-1.49343 z m 6.79161,-6.24285 v -4.42074 h -1.45092 -1.45092 l -0.0869,2.98594 c -0.0929,3.19225 -0.35783,4.55989 -1.05512,5.44635 l -0.32186,0.40918 h 2.18285 2.18284 z m 14.76683,7.6471 c -0.10239,-0.10237 -0.18615,-0.32099 -0.18615,-0.48582 0,-0.4699 -0.60197,-1.32554 -1.13955,-1.61973 -0.43144,-0.2361 -1.01979,-0.26769 -4.98744,-0.26769 -3.89507,0 -4.49828,-0.0312 -4.49828,-0.23266 0,-0.14436 0.17662,-0.25107 0.46533,-0.28111 0.83637,-0.087 0.85312,-0.18217 0.85312,-4.84325 0,-3.95859 -0.0219,-4.3093 -0.28366,-4.54621 -0.15602,-0.14118 -0.47012,-0.25671 -0.69801,-0.25671 -0.26489,0 -0.41434,-0.0839 -0.41434,-0.23267 0,-0.19648 0.36192,-0.23267 2.32669,-0.23267 1.96478,0 2.32671,0.0362 2.32671,0.23267 0,0.15412 -0.15414,0.23267 -0.45655,0.23267 -0.89861,0 -0.93947,0.21738 -0.93947,4.99815 v 4.30866 h 2.3267 2.3267 v -4.47208 -4.47208 l -0.349,-0.17333 c -0.19196,-0.0953 -0.48283,-0.19438 -0.64638,-0.2201 -0.16356,-0.0257 -0.32643,-0.13403 -0.36193,-0.24067 -0.0497,-0.1494 0.47235,-0.19389 2.27507,-0.19389 1.97626,0 2.33963,0.0361 2.33963,0.23267 0,0.1523 -0.15244,0.23267 -0.4413,0.23267 -0.92687,0 -0.95472,0.1392 -0.95472,4.77087 0,4.6087 0.0162,4.69106 0.92063,4.69106 h 0.43312 l 0.0831,1.51235 c 0.0846,1.53954 0.0124,1.89124 -0.31999,1.5589 z m 53.871991,0.0327 c -0.15205,-0.24601 -0.0554,-2.6971 0.11471,-2.91007 0.0852,-0.10663 0.34023,-0.19389 0.56674,-0.19389 1.40394,0 2.02565,-1.81096 2.28078,-6.64374 0.0925,-1.75209 0.0718,-2.08119 -0.15202,-2.42284 -0.18161,-0.27718 -0.39707,-0.39534 -0.7208,-0.39534 -0.30705,0 -0.46176,-0.078 -0.46176,-0.23268 0,-0.20118 0.57735,-0.23267 4.26561,-0.23267 3.68826,0 4.26562,0.0315 4.26562,0.23267 0,0.15471 -0.15471,0.23268 -0.46175,0.23268 -0.90846,0 -0.95407,0.25016 -0.90269,4.95323 0.0499,4.56775 0.0363,4.50118 0.9213,4.50632 0.5319,0.003 0.59826,0.21124 0.59826,1.87643 0,1.65857 -0.23804,1.82984 -0.70114,0.50446 -0.37692,-1.07872 -0.81574,-1.42544 -2.02444,-1.59956 -1.51418,-0.21812 -5.3518,-0.0856 -5.91209,0.2041 -0.51696,0.26734 -1.09898,1.1274 -1.23998,1.83234 -0.0899,0.4496 -0.26518,0.56552 -0.43635,0.28856 z m 6.90151,-7.67981 v -4.42074 h -1.47358 -1.47359 l -0.002,1.4348 c -0.003,1.79898 -0.25842,4.94109 -0.46338,5.70228 -0.0853,0.31682 -0.3274,0.82992 -0.53798,1.14023 l -0.38286,0.56416 h 2.16691 2.16692 z m -106.473111,5.03219 c -1.47877,-0.56134 -2.79724,-1.99795 -3.27166,-3.56485 -0.79064,-2.61133 0.66442,-5.56871 3.20292,-6.50987 1.49529,-0.55437 2.62491,-0.58006 4.01965,-0.0914 1.15251,0.40383 1.15612,0.40407 1.41299,0.0937 0.50638,-0.6119 0.59559,-0.37969 0.59559,1.55017 0,1.96044 -0.174,2.38463 -0.47987,1.16987 -0.18996,-0.75436 -0.931,-1.62961 -1.7292,-2.04239 -0.52979,-0.27396 -1.72899,-0.35186 -2.60922,-0.1695 -0.7793,0.16146 -1.76867,1.1922 -2.17408,2.265 -0.67306,1.78107 -0.32606,4.52255 0.71399,5.64088 1.4302,1.53783 3.88807,1.4776 5.54836,-0.13595 0.4453,-0.43278 0.63206,-0.52827 0.76778,-0.39255 0.29487,0.29487 -1.35488,1.77581 -2.42372,2.17572 -1.09434,0.40944 -2.51263,0.41387 -3.57353,0.0112 z m 7.04086,0.16138 c -0.27939,-0.17268 -0.0348,-0.46261 0.39029,-0.46261 0.83308,0 0.85505,-0.12355 0.85505,-4.80852 0,-4.7529 -0.0109,-4.80851 -0.94176,-4.80851 -0.30259,0 -0.45427,-0.0785 -0.45427,-0.23526 0,-0.20533 0.51784,-0.22998 4.07174,-0.19389 l 4.07173,0.0413 0.0453,1.20213 c 0.0377,0.99931 0.005,1.20213 -0.19389,1.20213 -0.15028,0 -0.2392,-0.14093 -0.2392,-0.37913 0,-0.20852 -0.1683,-0.57497 -0.374,-0.81435 -0.36584,-0.42572 -0.41487,-0.43634 -2.24914,-0.48698 l -1.87515,-0.0518 v 1.87436 1.87435 h 1.62471 1.62471 l 0.23046,-0.44567 c 0.12676,-0.24512 0.18841,-0.48774 0.137,-0.53914 -0.0514,-0.0514 -0.002,-0.20318 0.10883,-0.33725 0.16125,-0.19429 0.2282,-0.20291 0.32995,-0.0425 0.17571,0.27699 0.16158,3.40496 -0.0166,3.68679 -0.19124,0.3024 -0.32049,0.14978 -0.39908,-0.47126 -0.0354,-0.28 -0.13933,-0.58415 -0.23088,-0.6759 -0.0915,-0.0917 -0.89604,-0.19061 -1.78775,-0.21971 l -1.6213,-0.0529 v 1.99958 c 0,1.34841 0.0606,2.0602 0.18614,2.18571 0.28224,0.28225 2.94522,0.24295 3.65579,-0.0539 0.71546,-0.29895 1.19642,-0.74249 1.43828,-1.32638 0.16447,-0.39708 0.61411,-0.64178 0.61411,-0.33423 0,0.16135 -0.80212,2.58117 -0.88712,2.67624 -0.11401,0.12752 -7.90739,0.1249 -8.11389,-0.003 z m 9.62147,-0.16307 c 0,-0.20191 0.13946,-0.29343 0.50058,-0.32849 0.86284,-0.0838 0.9058,-0.33125 0.85937,-4.94995 -0.0453,-4.50969 -0.06,-4.58218 -0.94494,-4.66795 -0.27091,-0.0263 -0.49257,-0.11754 -0.49257,-0.20286 0,-0.0961 1.06821,-0.17116 2.80999,-0.1973 2.47997,-0.0372 2.88986,-0.008 3.49006,0.25318 1.05776,0.45941 1.54266,0.96879 1.77504,1.86463 0.26586,1.02487 0.001,2.17512 -0.65027,2.82268 -0.60714,0.60381 -2.12742,0.98751 -3.36009,0.84805 l -0.91654,-0.10369 0.0546,2.03171 c 0.059,2.19467 0.1108,2.32338 0.93735,2.32808 0.42346,0.002 0.70931,0.24577 0.51595,0.43925 -0.0583,0.0583 -1.11228,0.11423 -2.34224,0.12428 -2.05879,0.0168 -2.23629,-0.004 -2.23629,-0.26162 z m 5.07154,-5.56658 c 0.76035,-0.4636 1.0466,-1.01376 1.03257,-1.98451 -0.0109,-0.75615 -0.0709,-0.903 -0.57495,-1.40702 -0.51513,-0.51512 -0.63835,-0.56308 -1.45604,-0.56671 l -0.89329,-0.004 -0.0438,1.93729 c -0.0382,1.68661 -0.009,1.9626 0.22354,2.13282 0.39057,0.28559 1.14464,0.23807 1.71202,-0.10789 z m 24.973141,5.76458 c -0.423501,-0.0881 -0.22279,-0.41287 0.29199,-0.47249 0.85335,-0.0988 0.84117,-0.03 0.84117,-4.75097 0,-3.97342 -0.0251,-4.4001 -0.27145,-4.62027 -0.1493,-0.1334 -0.44049,-0.26638 -0.64709,-0.29549 -0.20659,-0.0291 -0.40476,-0.14134 -0.44035,-0.24941 -0.0514,-0.15595 0.77845,-0.18796 4.0208,-0.15512 l 4.08553,0.0414 0.0456,1.21733 c 0.0344,0.91938 -0.002,1.20153 -0.14798,1.1528 -0.10647,-0.0355 -0.24807,-0.27486 -0.31468,-0.53193 -0.23947,-0.92412 -0.57637,-1.06263 -2.58468,-1.06263 h -1.80675 l -0.0277,1.8226 -0.0277,1.82257 h 1.59858 c 1.7438,0 1.87295,-0.0573 2.04283,-0.90669 0.0541,-0.27056 0.19535,-0.48933 0.31592,-0.48933 0.17777,0 0.21001,0.3487 0.1745,1.88747 -0.028,1.2154 -0.10519,1.90792 -0.21666,1.94493 -0.0989,0.0328 -0.21637,-0.21311 -0.27405,-0.57385 -0.13004,-0.81321 -0.49189,-0.95752 -2.25357,-0.89874 l -1.33222,0.0444 2e-5,1.86136 c 1e-5,1.02375 0.0525,1.98969 0.11673,2.14653 0.10512,0.25685 0.28222,0.27981 1.78378,0.23131 2.01315,-0.065 2.57315,-0.29274 3.17658,-1.29177 0.39854,-0.65981 0.73964,-0.90368 0.73964,-0.5288 0,0.33186 -0.82178,2.4778 -0.99106,2.58798 -0.17429,0.11344 -7.38054,0.17438 -7.89777,0.0668 z m 13.69483,-0.0338 c -0.30384,-0.18778 -0.0232,-0.46378 0.47156,-0.46378 0.28687,0 0.50911,-0.10907 0.6113,-0.30003 0.24603,-0.4597 0.21559,-8.72068 -0.0333,-9.04504 -0.10664,-0.13897 -0.39791,-0.27446 -0.64727,-0.3011 -0.24936,-0.0266 -0.48203,-0.13568 -0.51704,-0.24232 -0.0499,-0.15179 0.81593,-0.19389 3.98708,-0.19389 3.10534,0 4.06468,0.0452 4.11047,0.19389 0.0328,0.10664 0.10094,0.69995 0.15132,1.31848 0.0755,0.92704 0.0516,1.12456 -0.13616,1.12456 -0.13414,0 -0.29584,-0.25275 -0.39332,-0.61478 -0.26005,-0.96575 -0.56793,-1.09147 -2.67297,-1.09147 h -1.82685 l 0.002,4.14929 c 0.003,4.73778 0.0312,4.87934 1.00975,5.00241 0.41026,0.0516 0.61665,0.15544 0.61665,0.31024 0,0.19531 -0.36452,0.23586 -2.27058,0.25253 -1.24882,0.0109 -2.35713,-0.0336 -2.46291,-0.099 z m 12.56673,-0.0246 c -0.21329,-0.0882 -0.60651,-0.25294 -0.87384,-0.36616 -1.88692,-0.79918 -3.15064,-3.52042 -2.70744,-5.83006 0.36108,-1.88167 1.26312,-3.14262 2.83916,-3.96883 0.7107,-0.37257 0.99495,-0.42932 2.13814,-0.42687 1.1329,0.002 1.44467,0.065 2.21517,0.44482 2.1474,1.05847 3.2246,3.39557 2.7746,6.01978 -0.45176,2.6345 -2.41394,4.32466 -4.98977,4.29804 -0.55453,-0.006 -1.18274,-0.0826 -1.39602,-0.17072 z m 2.61862,-0.93827 c 0.65929,-0.40412 1.06731,-0.88367 1.48475,-1.74506 0.24858,-0.51294 0.30353,-0.96023 0.30552,-2.48679 0.002,-1.67559 -0.0374,-1.94705 -0.39612,-2.71987 -0.68343,-1.47216 -1.94711,-2.20337 -3.21696,-1.86144 -0.9052,0.24375 -1.41456,0.73435 -1.92018,1.84946 -0.41592,0.9173 -0.45779,1.16207 -0.45779,2.67605 0,1.47284 0.0477,1.77056 0.41054,2.56314 0.2258,0.49321 0.52943,1.03078 0.67474,1.1946 0.81311,0.91671 2.12143,1.13923 3.1155,0.52991 z m 4.88183,0.92796 c -0.14269,-0.23087 0.12435,-0.42885 0.57845,-0.42885 0.35108,0 0.49585,-0.0942 0.6113,-0.39788 0.0843,-0.22166 0.15026,-2.16248 0.14898,-4.38196 -0.003,-4.45346 -0.0533,-4.7267 -0.89315,-4.80825 -0.30919,-0.03 -0.50058,-0.13381 -0.50058,-0.27145 0,-0.18563 0.47273,-0.22259 2.83082,-0.22133 2.65515,0.001 2.88008,0.0245 3.62454,0.3711 1.11113,0.51736 1.65268,1.27267 1.73573,2.42084 0.11213,1.5502 -0.71033,2.55143 -2.41969,2.94563 -0.493,0.11371 -1.15909,0.14708 -1.66748,0.0836 l -0.84654,-0.10577 v 1.92043 c 0,2.11764 0.0958,2.39538 0.85313,2.4742 0.2887,0.03 0.46534,0.13675 0.46534,0.2811 0,0.19589 -0.35151,0.23303 -2.22377,0.23495 -1.22307,0.001 -2.25676,-0.0511 -2.29708,-0.11633 z m 5.17957,-5.72636 c 1.83117,-1.13173 0.86797,-4.12487 -1.27918,-3.97504 l -0.62045,0.0433 -0.0437,1.91711 c -0.0292,1.28097 0.0157,1.98869 0.13533,2.13281 0.26678,0.32145 1.19481,0.26079 1.80799,-0.11817 z m 7.27997,5.62322 c -1.04666,-0.35837 -2.28817,-1.50115 -2.82768,-2.60281 -0.39387,-0.80427 -0.44293,-1.0719 -0.44985,-2.45386 -0.007,-1.38352 0.0392,-1.65171 0.42691,-2.48182 0.91637,-1.96205 2.40636,-2.92949 4.52897,-2.94064 1.04043,-0.005 1.38521,0.0622 2.13408,0.41863 1.95659,0.93134 2.98505,2.68255 2.98421,5.08138 -5.2e-4,1.17114 -0.0566,1.43332 -0.50289,2.34634 -0.91498,1.87176 -2.57538,2.94398 -4.50349,2.90815 -0.57342,-0.0106 -1.37904,-0.13457 -1.79026,-0.27537 z m 3.24991,-1.03762 c 0.30815,-0.24941 0.74373,-0.80202 0.96794,-1.22802 0.38177,-0.72534 0.40767,-0.90761 0.40767,-2.86859 0,-1.89913 -0.034,-2.15876 -0.36536,-2.78941 -0.58825,-1.11962 -1.26602,-1.64954 -2.19403,-1.71543 -1.05309,-0.0748 -1.3908,0.0115 -1.94266,0.49598 -1.64337,1.4429 -1.97098,4.96148 -0.67642,7.26484 0.80032,1.42397 2.59262,1.82016 3.80286,0.84063 z m 14.23285,1.14944 c -0.13316,-0.21543 0.067,-0.39319 0.55176,-0.49015 0.55513,-0.11103 0.66143,-0.30488 2.56577,-4.67834 0.74295,-1.70625 1.44296,-3.31168 1.55556,-3.56762 0.1126,-0.25593 0.34614,-0.79689 0.51895,-1.20213 0.17284,-0.40523 0.37749,-0.73679 0.4548,-0.73679 0.0773,0 0.33768,0.47116 0.57858,1.04702 0.24093,0.57586 0.59196,1.39602 0.78012,1.82259 0.40089,0.90892 1.77788,4.09226 2.34835,5.42897 0.5121,1.19989 1.04305,1.90451 1.48209,1.96686 0.19216,0.0273 0.34938,0.15432 0.34938,0.28229 0,0.19574 -0.34469,0.23267 -2.17159,0.23267 -1.82053,0 -2.17159,-0.0374 -2.17159,-0.23115 0,-0.13483 0.1939,-0.266 0.46533,-0.31478 0.41931,-0.0754 0.46377,-0.13885 0.44935,-0.64156 -0.009,-0.30685 -0.17868,-0.95046 -0.37753,-1.43024 l -0.36157,-0.87233 h -1.84073 -1.84073 l -0.20756,0.50412 c -0.66325,1.61091 -0.79076,2.14038 -0.55189,2.29139 0.12781,0.0808 0.39455,0.14797 0.59276,0.14928 0.25261,0.002 0.34538,0.0798 0.31023,0.26146 -0.0428,0.22119 -0.2953,0.26251 -1.72566,0.28242 -0.92152,0.0128 -1.71091,-0.034 -1.75418,-0.10398 z m 6.6095,-4.31077 c 0,-0.0828 -0.16601,-0.51904 -0.36894,-0.96946 -0.20292,-0.45042 -0.52044,-1.16708 -0.70559,-1.59258 l -0.33663,-0.77364 -0.59368,1.39409 c -0.97902,2.29893 -1.03817,2.0921 0.59837,2.0921 0.80561,0 1.40647,-0.0643 1.40647,-0.15051 z"
       id="path74"
       inkscape:connector-curvature="0" />
  </g>
</svg>
