<svg xmlns="http://www.w3.org/2000/svg" width="256" height="256"><path fill-opacity=".016" d="M0 128.004v128.004l128.25-.254 128.25-.254.254-127.75L257.008 0H0v128.004m.485.496c0 70.4.119 99.053.265 63.672.146-35.38.146-92.98 0-128C.604 29.153.485 58.1.485 128.5" fill="#1976D2" fill-rule="evenodd"/><path fill-opacity=".426" d="M163 7.351c-16.158 5.739-31.654 17.479-39.536 29.954-1.63 2.58-3.301 4.692-3.713 4.693-.411.001-3.336-1.992-6.5-4.428-11.613-8.946-25.073-14.178-39.969-15.535-22.951-2.092-40.312 4.429-55.519 20.854-6.988 7.548-10.309 13.089-14.127 23.569-3.827 10.506-4.83 29.079-2.207 40.868 2.036 9.153 8.064 21.868 14.063 29.664 5.694 7.4 16.504 17.131 18.639 16.779.897-.148 9.222-7.096 18.5-15.441 9.278-8.344 19.491-17.315 22.695-19.935 5.477-4.478 5.966-4.678 8.159-3.328 3.178 1.956 38.179 31.913 47.765 40.882l7.75 7.251v10.794c0 12.111.065 12.008-7.582 12.008H127l-.059-13.75-.059-13.75-6.405-5.331c-3.523-2.932-6.872-5.043-7.441-4.691-.671.415-1.036 9.773-1.036 26.581V201h42.037l-.269-23.176-.268-23.177-24-20.447C79.63 91.714 82.313 93.783 79.221 95.416c-1.496.79-7.896 6.027-14.221 11.636C49.141 121.117 33.775 134 32.857 134c-1.499 0-8.05-9.585-11.946-17.479-4.394-8.902-5.902-16.072-5.893-28.021.022-29.73 22.516-52.391 52.096-52.483 8.914-.027 15.754 1.66 24.886 6.141 7.322 3.593 10.068 5.756 19.814 15.609 6.223 6.291 11.457 11.279 11.632 11.086.174-.194 1.77-3.278 3.545-6.853 14.385-28.964 32.726-42.952 56.365-42.988 15.731-.024 27.488 4.82 38.747 15.963 12.104 11.979 17.554 25.626 18.582 46.525.876 17.837-2.945 34.763-12.212 54.086-11.032 23.003-36.673 49.363-69.043 70.98C146.892 214.939 118.398 230 115.096 230c-1.249 0-3.236-2.303-5.993-6.944-10.949-18.428-26.412-36.103-41.14-47.024-10.603-7.861-23.991-14.687-23.952-12.212.006.374 5.412 5.782 12.015 12.019 19.02 17.965 28.346 31.167 42.024 59.486 5.493 11.372 7.522 14.675 9.016 14.675 2.215 0 30.988-13.466 44.664-20.903 32.272-17.549 63.098-44.667 81.099-71.343 10.329-15.308 18.897-36.138 21.396-52.021.906-5.761 1.434-7.302 1.913-5.593.365 1.298.703-2.815.753-9.14.134-17.133-3.611-34.384-10.422-48-9.4-18.792-24.247-31.212-43.065-36.025-11.574-2.96-31.535-2.774-40.404.376m4.864 36.399c-.074.962-.412 17.95-.75 37.75l-.614 36-2.23.317-2.231.317-.269-21.817-.27-21.817-24.75-.267-24.75-.268.024 19.268.025 19.267 6.167 5.25c3.392 2.888 6.756 5.25 7.476 5.25.997 0 1.308-2.579 1.308-10.853 0-5.97.289-13.62.642-17l.643-6.147H146l.006 13.75c.003 7.563.296 17.473.65 22.023l.644 8.273 17.1-.273 17.1-.273.262-37.75.262-37.75H202v53.083c0 29.196.386 52.934.857 52.75.471-.183 3.614-3.483 6.983-7.333l6.125-7 .018-53.25L216 42h-24c-22.139 0-24.011.136-24.136 1.75M187 64.955c0 4.868.061 4.966 3.492 5.61 5.505 1.032 6.508.18 6.508-5.534V60h-10v4.955m-.083 9.461c-.229.229-.26 2.727-.067 5.551l.35 5.134 4.65-.3 4.65-.301.302-5.25.303-5.25h-4.886c-2.687 0-5.073.187-5.302.416M.389 90.5c.001 7.15.161 9.944.353 6.208.193-3.735.192-9.585-.003-13-.194-3.414-.352-.358-.35 6.792M132 97v5h10V92h-10v5m.714 9.62c-1.167 1.166-.811 7.883.486 9.18 1.376 1.376 5.675 1.566 7.615.336.85-.539 1.203-2.391 1-5.235-.312-4.365-.348-4.403-4.351-4.698-2.22-.163-4.358.024-4.75.417M67 141v6h6c5.942 0 6-.028 6-2.875 0-1.581-.281-4.281-.625-6-.607-3.035-.78-3.125-6-3.125H67v6m15 0v6h12v-12H82v6m-15 16v6h5.531c6.412 0 7.03-.771 6.019-7.512L77.877 151H67v6m15.667-5.333c-.367.366-.667 3.066-.667 6V163h12v-12h-5.333c-2.934 0-5.634.3-6 .667" fill="#1976D2" fill-rule="evenodd"/><path fill-opacity=".389" d="M166.794 6.475c-15.954 4.392-33.586 17.027-42.954 30.779l-3.919 5.753-6.711-5.083C98.466 26.754 85.701 22.594 66 22.538c-15.951-.045-23.715 1.893-33.865 8.453C12.469 43.702 1.429 63.294.291 87.5c-.795 16.902 3.302 31.648 12.594 45.331 4.48 6.597 11.586 14.196 17.367 18.57 4.433 3.355 1.884 4.892 22.231-13.404 13.371-12.022 22.685-20.043 27.674-23.83 1.424-1.081 2.973-.168 11 6.483 16.535 13.701 47.991 41.571 48.543 43.01.294.767.214 6.108-.179 11.868L138.808 186H127v-26.956l-6.75-5.575-6.75-5.575-.662 4.803c-.365 2.642-.702 14.366-.75 26.053L112 200h42v-44.628l-35.109-29.808C99.581 109.17 83.034 95.56 82.12 95.321c-2.135-.558-6.995 3.018-20.585 15.151C45.551 124.743 34.404 134 33.206 134c-3.514 0-15.204-19.685-17.102-28.799-1.844-8.855-1.407-26.367.824-32.983 2.972-8.812 6.903-15.148 13.548-21.839C40.431 40.358 51.5 36 67 36c17.734 0 27.415 4.571 44.265 20.902 6.47 6.271 11.906 11.221 12.079 11 .173-.221 2.258-4.002 4.634-8.402 11.83-21.91 23.409-33.344 39.022-38.531 8.977-2.983 27.514-2.494 36.34.958 38.154 14.922 49.28 65.64 25.134 114.573-14.752 29.895-52.431 63.721-95.799 86.002-9.665 4.965-15.721 7.509-17.397 7.307-1.955-.235-3.516-1.867-6.511-6.809C93.44 197.71 72 176.167 53.284 167.249c-3.968-1.891-7.708-3.274-8.311-3.073-.602.2 2.821 3.726 7.606 7.834 8.878 7.621 18.128 17.618 25.359 27.406 5.686 7.697 16.685 27.156 22.523 39.845 2.717 5.907 5.544 10.739 6.283 10.739 2.07 0 36.428-16.32 47.212-22.426 31.606-17.896 61.251-44.373 79.085-70.634 11.321-16.671 21.571-44.616 22.101-60.255l.142-4.185.716 4c.55 3.071.749 1.854.858-5.236.078-5.079-.288-11.154-.814-13.5-.526-2.345-1.689-8.089-2.586-12.764-5.727-29.879-25.069-51.622-51.571-57.975-9.778-2.344-27.565-2.623-35.093-.55m1.891 36.174c-.377.376-.685 10.663-.685 22.859 0 12.196-.295 28.996-.656 37.333L166.688 118H161V75h-49.044l.272 18.684.272 18.683 6.499 5.518 6.498 5.519.633-2.952c.348-1.624.694-8.802.767-15.952.073-7.15.464-13.509.868-14.132.417-.642 4.409-1.291 9.235-1.5l8.5-.368.627 10.5c.346 5.775.683 15.563.75 21.75L147 132h33.68l.66-24.162c.363-13.289.66-30.164.66-37.5V57h20v52.5c0 32.551.362 52.5.952 52.5.523 0 3.677-3.238 7.008-7.196l6.057-7.196-.258-52.554L215.5 42.5l-23.065-.268c-12.686-.147-23.374.04-23.75.417M187 64.945V70h4.481c3.895 0 4.56-.314 5.083-2.398.331-1.319.452-3.457.269-4.75-.289-2.04-.964-2.392-5.083-2.657L187 59.89v5.055m0 14.555V84h10v-9h-10v4.5M.37 91c0 5.775.165 8.138.367 5.25.202-2.888.202-7.612 0-10.5S.37 85.225.37 91m132.297 1.667c-.367.366-.667 2.616-.667 5V102h10V92h-4.333c-2.384 0-4.634.3-5 .667m-.652 17.583c.023 4.825 1.135 5.934 5.587 5.569 3.813-.312 3.905-.412 4.205-4.569l.308-4.25h-5.058c-5.042 0-5.057.01-5.042 3.25M67 141v6h11v-12H67v6m16-.052V147h11.1l-.3-5.75-.3-5.75-5.25-.302-5.25-.303v6.053M67.198 157.25l.302 5.25 5.25.302 5.25.303V152H66.895l.303 5.25m15.802.357c0 4.702.255 5.509 1.582 5 .87-.334 3.345-.607 5.5-.607H94v-10H83v5.607" fill="#1976D2" fill-rule="evenodd"/><path fill-opacity=".636" d="M168.142 6.397c-8.438 2.15-22.994 9.898-30.643 16.311-3.85 3.227-9.249 9.088-11.999 13.024s-5.259 7.181-5.575 7.212c-.317.031-3.229-2.004-6.472-4.523-7.105-5.517-19.579-11.66-28.453-14.012-9.199-2.438-29.395-2.453-37.5-.027-9.65 2.888-17.298 7.552-26.205 15.983-7.045 6.669-9.027 9.302-12.809 17.013C2.308 69.974.949 76.043.959 91c.011 17.714 3.789 29.886 13.496 43.489 4.522 6.337 18.223 19.806 19.625 19.292.423-.154 8.425-7.181 17.784-15.614C69.11 122.626 80.568 113 81.821 113c.953 0 32.187 26.504 46.179 39.185l11.5 10.423V185.5l-6.75.296-6.75.295v-27.796l-5.916-4.647c-3.253-2.557-6.178-4.648-6.5-4.648-.321 0-.584 11.475-.584 25.5V200h41l-.046-22.25-.046-22.25-35.431-29.992C98.99 109.012 82.592 95.364 82.038 95.179c-1.537-.512-5.934 2.925-24.346 19.033-22.936 20.065-23.91 20.805-25.905 19.689-2.29-1.282-10.293-13.536-13.342-20.43-1.674-3.784-2.924-9.239-3.691-16.101-1.513-13.54-.191-21.922 5.19-32.902C29.221 45.54 45.311 35.672 67 35.607c18.02-.053 29.67 5.639 46.126 22.537 10.948 11.242 9.617 11.255 15.361-.144 15.789-31.33 40.91-45.187 68.928-38.022 10.708 2.739 16.916 6.323 25.126 14.505 8.13 8.102 13.413 17.377 16.643 29.217 3.148 11.539 3.107 32.395-.09 44.8-2.853 11.074-8.063 24.479-12.733 32.762-11.716 20.782-37.134 46.153-64.82 64.7-18.473 12.376-44.841 25.904-48.071 24.665-.704-.27-2.679-3.109-4.388-6.309-3.773-7.065-14.249-21.401-22.339-30.574-10.011-11.349-27.185-24.251-37.243-27.979l-5-1.853 11.196 10.578c11.398 10.768 20.946 21.823 26.995 31.255 5.335 8.317 15.835 28.041 19.434 36.505 1.812 4.262 3.648 7.75 4.079 7.75 1.285 0 20.031-8.602 33.997-15.601 45.987-23.044 83.995-57.883 101.751-93.266 4.64-9.246 10.733-28.343 12.107-37.945 1.744-12.191.72-34.711-2.009-44.188-7.707-26.755-24.998-45.085-48.55-51.466-8.273-2.241-28.473-2.891-35.358-1.137m10.108 36.371L168 43.07v37.465c0 29.298-.272 37.468-1.25 37.479-.687.007-2.262.285-3.5.616l-2.25.603V75h-48l-.007 11.75c-.004 6.463-.284 14.675-.621 18.251l-.615 6.501 6.872 5.782 6.871 5.782.878-16.783c.542-10.369 1.307-17.064 2-17.518.617-.404 4.773-.741 9.236-.75l8.114-.015.636 4.64c.35 2.551.636 11.74.636 20.418 0 8.678.273 16.49.607 17.36.519 1.354 2.974 1.582 17 1.582H181V57.267l10.25-.512c5.637-.282 10.588-.315 11-.075.412.241.766 24.149.786 53.129l.036 52.691 2.214-2.613c1.218-1.438 3.888-4.617 5.933-7.066l3.719-4.452.281-52.098c.155-28.653.056-52.299-.219-52.546-.747-.669-25.029-1.301-36.75-.957m8.943 22.482c.306 4.229.328 4.251 4.557 4.557l4.25.308V61h-9.115l.308 4.25M187 79.5V84h9v-9h-9v4.5m-54 18v4.5h9v-9h-9v4.5m-.603 10.909c-.322.839-.168 2.777.342 4.308.804 2.412 1.449 2.783 4.844 2.783 3.903 0 3.917-.014 3.917-4 0-3.992-.008-4.001-4.259-4.308-3.101-.224-4.418.107-4.844 1.217M68 141v6h10v-12H68v6m15 0v6h10v-12H83v6m-15.153 16.001-.347 5h5.25L78 162v-10H68.193l-.346 5.001M83 157v5h10v-10H83v5" fill="#1976D2" fill-rule="evenodd"/></svg>